<svg xmlns="http://www.w3.org/2000/svg" version="1.1" xmlns:xlink="http://www.w3.org/1999/xlink" xmlns:svgjs="http://svgjs.dev/svgjs" width="100%" height="100%" viewBox="0 0 1000 600"><rect width="1000" height="600" x="0" y="0" fill="#EC32"/><g><circle r="166.66666666666666" cx="385.0336252848307" cy="407.25589141189744" fill="#34Z" transform="matrix(0.5724309460958118,0,0,0.5724309460958119,0,66.87414766417882)"/><path d="M399.56537274286507 351.83340538898153L399.56537274286507 351.83340538898153Q404.8129508053171 345.4555797438475 415.79249875137054 339.4410479645756Q426.81241268251983 333.3861502002079 446.833941290029 333.3861502002079L446.833941290029 333.3861502002079Q475.2112288123657 333.3861502002079 487.8457821473463 347.998636804882Q500.48033548232695 362.61112340955606 500.48033548232695 391.876462604L500.48033548232695 391.876462604L500.48033548232695 474.747830005646Q500.48033548232695 478.98625844070347 498.7042321381124 480.64126382963065Q496.9281287938978 482.255903233462 492.64933437374464 482.255903233462L492.64933437374464 482.255903233462L463.42436116439654 482.255903233462Q459.14556674424335 482.255903233462 457.40982938512457 480.64126382963065Q455.6337260409101 478.98625844070347 455.6337260409101 474.747830005646L455.6337260409101 474.747830005646L455.6337260409101 399.2230718914328Q455.6337260409101 383.35923974878943 449.7806582020213 376.45665629741023Q443.9679563482283 369.5944388311268 432.34255264064234 369.5944388311268L432.34255264064234 369.5944388311268Q421.96849447102556 369.5944388311268 415.9539626917537 374.19616113204626Q409.9394309124818 378.79788343296576 407.35600786635155 386.5885185564522L407.35600786635155 386.5885185564522L407.35600786635155 474.747830005646Q407.35600786635155 478.98625844070347 405.579904522137 480.64126382963065Q403.80380117792254 482.255903233462 399.56537274286507 482.255903233462L399.56537274286507 482.255903233462L370.340399533517 482.255903233462Q366.0616051133637 482.255903233462 364.2855017691493 480.64126382963065Q362.5093984249347 478.98625844070347 362.5093984249347 474.747830005646L362.5093984249347 474.747830005646L362.5093984249347 399.2230718914328Q362.5093984249347 383.76289959974724 356.13157277980076 376.65848622288917Q349.75374713466675 369.5944388311268 339.37968896505004 369.5944388311268L339.37968896505004 369.5944388311268Q329.6111205718702 369.5944388311268 323.63695477769403 374.3979910575252Q317.6627889835179 379.24190926901935 314.4335101758551 386.5885185564522L314.4335101758551 386.5885185564522L314.4335101758551 474.747830005646Q314.4335101758551 478.98625844070347 312.65740683164057 480.64126382963065Q310.88130348742607 482.255903233462 306.6025090672729 482.255903233462L306.6025090672729 482.255903233462L277.3775358579247 482.255903233462Q273.1391074228673 482.255903233462 271.3630040786528 480.64126382963065Q269.58690073443825 478.98625844070347 269.58690073443825 474.747830005646L269.58690073443825 474.747830005646L269.58690073443825 355.8296379134642Q269.58690073443825 352.39852918032256 270.9997102127907 350.54169386591644L270.9997102127907 350.54169386591644Q273.9867931098788 346.5858273265295 278.1444895747446 342.4684968467595Q282.34255202470627 338.35116636698945 288.43781577416974 333.6687120958784L288.43781577416974 333.6687120958784Q290.29465108857585 332.2559026175259 291.9900224625988 332.2559026175259L291.9900224625988 332.2559026175259Q293.5642958813344 332.2559026175259 295.54222915102787 333.6687120958784L295.54222915102787 333.6687120958784Q301.516394945204 338.35116636698945 305.7548233802614 342.6299607871426Q310.03361780041456 346.86838922220005 313.2628966080773 351.4297455380237L313.2628966080773 351.4297455380237L313.9894843398015 351.4297455380237Q318.83340255129565 345.2941158034644 329.0459967805292 339.36031599438405Q339.2585910097627 333.3861502002079 358.2709699898773 333.3861502002079L358.2709699898773 333.3861502002079Q376.43566328298044 333.3861502002079 385.23544803386153 338.83555818813886Q394.03523278474256 344.3253321611656 399.56537274286507 351.83340538898153Z " fill="#eeee33" transform="matrix(0.5724309460958118,0,0,0.5724309460958119,0,66.87414766417882)"/><path d="M711.4895314605278 425.9958853604358L712.237527827496 425.9958853604358Q713.5465214696906 420.9201957274368 715.0959425155534 416.0047910302167Q716.6453635614162 411.06267217703356 718.9160668182842 404.9718446174348L718.9160668182842 404.9718446174348Q720.8929143595575 399.5221568009516 723.6979007356886 392.41619131475306Q726.5296012677827 385.33693998451764 729.6551575154715 378.01726125061384Q732.8074279191235 370.6708683607469 735.8261275429597 364.393041709406Q738.8181130108328 358.08850090210206 741.2758153594428 354.3485190672607L741.2758153594428 354.3485190672607Q744.2678008273159 349.7269700856353 747.7940694144521 347.4829809847305Q751.3203380015882 345.2389918838257 758.1591619281553 345.2389918838257L758.1591619281553 345.2389918838257L770.4743878271686 345.2389918838257Q775.3630783684255 345.2389918838257 778.6756337078564 346.6815563058359Q782.0149032032505 348.1508348838093 783.4307534692975 353.57380854432927L783.4307534692975 353.57380854432927Q784.4726055518605 357.63436025072843 785.4076010105708 365.40817963600585Q786.3425964692813 373.2087131772464 787.01045036836 387.0199318101962Q787.6515901114757 400.8311504431461 788.0255882949598 422.46961677329966Q788.399586478444 444.1347972594164 788.399586478444 475.9513570115311L788.399586478444 475.9513570115311Q788.399586478444 477.66106299317283 787.2775919279916 478.78305754362526Q786.1555973775392 479.90505209407763 784.55274801975 479.90505209407763L784.55274801975 479.90505209407763L763.1547090932647 479.90505209407763Q761.5518597354757 479.90505209407763 760.4298651850232 478.78305754362526Q759.3078706345708 477.66106299317283 759.3078706345708 475.8712145436416L759.3078706345708 475.8712145436416Q759.3078706345708 451.08047780983605 759.3078706345708 433.7964189016763Q759.3078706345708 416.51235999351667 759.2010140107182 405.15884370917684Q759.0941573868656 393.7786132688738 758.9605866070499 387.07336012212255Q758.8270158272342 380.3413928194081 758.5331601116394 376.6815534524562L758.5331601116394 376.6815534524562L757.9721628364132 376.6815534524562Q753.0033298272668 388.14192636064865 747.3666429190416 402.1935723972669Q741.7299560108165 416.21850427792197 736.387124818186 431.1250033053611Q731.0175794695923 446.00478817683705 726.7967428274142 460.1900049932711L726.7967428274142 460.1900049932711Q725.5678916531092 464.4108416354492 723.7513290476147 466.0404051492015Q721.9080522861573 467.69668281891694 715.4432265430744 467.69668281891694L715.4432265430744 467.69668281891694L704.6239933779975 467.69668281891694Q699.094163093625 467.69668281891694 697.2508863321675 466.28083255286987Q695.434323726673 464.8649822868228 694.1253300844786 460.1900049932711L694.1253300844786 460.1900049932711Q691.0264879927529 449.4776284520469 687.2597920019484 437.5364007365177Q683.493096011144 425.6218871769517 679.5126867726342 414.1080859568329Q675.5322775341244 402.62099889267733 671.8190098552462 392.8970461220898Q668.105742176368 383.1730933515023 665.1938991763844 376.6815534524562L665.1938991763844 376.6815534524562L664.6329019011582 376.6815534524562Q663.88490553419 387.7679281771645 663.3239082589637 403.6361368192771Q662.7361968277744 419.50434546138973 662.4156269562166 438.12411216770704Q662.0950570846587 456.7171647180612 661.9882004608062 476.05821363538365L661.9882004608062 476.05821363538365Q661.9882004608062 477.7412054610623 660.8662059103538 478.83648585555153Q659.7442113599013 479.90505209407763 658.1413620021121 479.90505209407763L658.1413620021121 479.90505209407763L638.8804555526792 479.90505209407763Q637.3043203508532 479.90505209407763 636.1823258004008 478.78305754362526Q635.0336170939852 477.66106299317283 635.0336170939852 475.8712145436416L635.0336170939852 475.8712145436416Q635.1404737178378 425.80888626869375 637.0638929471847 395.9424599018892Q638.9873121765318 366.07603353508466 641.2313012774366 355.9246542690867L641.2313012774366 355.9246542690867Q642.7540081673362 349.2728294342617 646.5474183141039 347.2425535810621Q650.3408284608715 345.2389918838257 655.2295190021285 345.2389918838257L655.2295190021285 345.2389918838257L670.4565879011254 345.2389918838257Q675.6124200020139 345.2389918838257 678.0166940386977 347.05555448932006Q680.3942539194182 348.89883125077756 683.8670941946281 354.1615199755186L683.8670941946281 354.1615199755186Q685.9507983597539 357.26036206724433 688.8092130478112 363.4580462506957Q691.6676277358686 369.6557304341471 694.7664698275943 377.21583657171925Q697.86531191932 384.7759427092914 700.6435841394879 392.14904975512155Q703.4218563596557 399.5221568009516 705.2117048091869 404.9718446174348L705.2117048091869 404.9718446174348Q707.0816957266077 410.50167490180735 708.6845450843967 415.7109353146221Q710.2606802862227 420.9201957274368 711.4895314605278 425.9958853604358L711.4895314605278 425.9958853604358ZM862.317656028487 482.2558978188351L862.317656028487 482.2558978188351Q846.4494473863745 482.2558978188351 834.7219329185505 477.1267798739098Q822.9677042947634 472.0243760849476 816.5028785516804 461.20514291987087Q810.0113386526343 450.41262391075725 810.0113386526343 433.3155640943396L810.0113386526343 433.3155640943396Q810.0113386526343 407.66997436971315 823.1547033865054 394.52660963584214Q836.2980681203765 381.38324490197107 858.0968193863089 381.38324490197107L858.0968193863089 381.38324490197107Q872.2820362027429 381.38324490197107 882.0861314412199 386.45893453497007Q891.9169408356601 391.534624167969 897.0193446246221 400.457152259662Q902.1484625695475 409.3796803513549 902.1484625695475 420.84005325954735L902.1484625695475 420.84005325954735Q902.1484625695475 432.0065704521451 896.4049190374697 436.41440618606526Q890.688089661355 440.82224191998546 879.7085715604993 440.82224191998546L879.7085715604993 440.82224191998546L839.3969102121022 440.82224191998546Q840.1449065790705 450.51948053460984 846.5028756983007 455.56845601164565Q852.8341306615679 460.64414564464465 863.7335062945341 460.64414564464465L863.7335062945341 460.64414564464465Q872.3621786706324 460.64414564464465 877.5714390834471 458.079586672182Q882.807413652225 455.4883135437562 884.8644036613878 453.99232080981966L884.8644036613878 453.99232080981966Q886.654252110919 452.65661301166205 888.8982412118238 452.7634696355147L888.8982412118238 452.7634696355147Q890.688089661355 452.7634696355147 894.0273591567491 453.45803769055664Q897.33991449618 454.17931990156177 900.6524698356109 456.0493108189824L900.6524698356109 456.0493108189824Q902.9766014044052 457.2781619932874 902.9766014044052 459.4420086263028L902.9766014044052 459.4420086263028Q902.9766014044052 460.64414564464465 902.5224607530316 462.9148489015126L902.5224607530316 462.9148489015126Q902.228605037437 464.2238425437071 901.5874652943213 466.70825904828024Q900.9196113952424 469.1926755528535 899.8777593126795 471.3565221858688L899.8777593126795 471.3565221858688Q899.3167620374534 472.3983742684318 898.1146250191114 473.3333697271421L898.1146250191114 473.3333697271421Q896.2179199457275 474.6423633693366 892.0505116154759 476.806210002352Q887.8563891292608 478.97005663536726 880.6435670192097 480.59962014911963Q873.4040307531953 482.2558978188351 862.317656028487 482.2558978188351ZM839.2099111203601 421.58804962651567L839.2099111203601 421.58804962651567L869.8243338541329 421.58804962651567Q874.6328819275003 421.58804962651567 874.6328819275003 417.1802138925955L874.6328819275003 417.1802138925955Q874.6328819275003 410.50167490180735 870.4387594412854 405.93355423210824Q866.2713511110336 401.3921477183723 857.9098202945669 401.3921477183723L857.9098202945669 401.3921477183723Q848.8002931111319 401.3921477183723 844.5260281570274 407.2158337183396Q840.251763202923 413.03951971830685 839.2099111203601 421.58804962651567ZM969.9489904040286 482.2558978188351L969.9489904040286 482.2558978188351Q954.080781761916 482.2558978188351 942.3265531381289 477.1267798739098Q930.5990386703049 472.0243760849476 924.1074987712589 461.20514291987087Q917.642673028176 450.41262391075725 917.642673028176 433.3155640943396L917.642673028176 433.3155640943396Q917.642673028176 407.66997436971315 930.786037762047 394.52660963584214Q943.9294024959181 381.38324490197107 965.7281537618505 381.38324490197107L965.7281537618505 381.38324490197107Q979.9133705782845 381.38324490197107 989.7174658167614 386.45893453497007Q999.5215610552385 391.534624167969 1004.6506790001638 400.457152259662Q1009.7797969450892 409.3796803513549 1009.7797969450892 420.84005325954735L1009.7797969450892 420.84005325954735Q1009.7797969450892 432.0065704521451 1004.0362534130113 436.41440618606526Q998.3194240368966 440.82224191998546 987.3131917800777 440.82224191998546L987.3131917800777 440.82224191998546L947.0282445876437 440.82224191998546Q947.776240954612 450.51948053460984 954.1342100738423 455.56845601164565Q960.4654650371094 460.64414564464465 971.3648406700756 460.64414564464465L971.3648406700756 460.64414564464465Q979.993513046174 460.64414564464465 985.2027734589888 458.079586672182Q990.4120338718035 455.4883135437562 992.4957380369294 453.99232080981966L992.4957380369294 453.99232080981966Q994.2855864864606 452.65661301166205 996.5295755873653 452.7634696355147L996.5295755873653 452.7634696355147Q998.3194240368966 452.7634696355147 1001.6586935322907 453.45803769055664Q1004.9712488717216 454.17931990156177 1008.2570900551893 456.0493108189824L1008.2570900551893 456.0493108189824Q1010.6079357799468 457.2781619932874 1010.6079357799468 459.4420086263028L1010.6079357799468 459.4420086263028Q1010.6079357799468 460.64414564464465 1010.1537951285732 462.9148489015126L1010.1537951285732 462.9148489015126Q1009.8599394129785 464.2238425437071 1009.2187996698628 466.70825904828024Q1008.550945770784 469.1926755528535 1007.5090936882211 471.3565221858688L1007.5090936882211 471.3565221858688Q1006.9480964129949 472.3983742684318 1005.745959394653 473.3333697271421L1005.745959394653 473.3333697271421Q1003.8492543212692 474.6423633693366 999.6818459910174 476.806210002352Q995.4877235048025 478.97005663536726 988.2749013947513 480.59962014911963Q981.0353651287369 482.2558978188351 969.9489904040286 482.2558978188351ZM946.8412454959016 421.58804962651567L946.8412454959016 421.58804962651567L977.4556682296745 421.58804962651567Q982.264216303042 421.58804962651567 982.264216303042 417.1802138925955L982.264216303042 417.1802138925955Q982.264216303042 410.50167490180735 978.070093816827 405.93355423210824Q973.9026854865751 401.3921477183723 965.5411546701084 401.3921477183723L965.5411546701084 401.3921477183723Q956.4316274866735 401.3921477183723 952.1573625325691 407.2158337183396Q947.8830975784647 413.03951971830685 946.8412454959016 421.58804962651567ZM1089.3078392473942 456.90416380980326L1089.3078392473942 456.90416380980326Q1096.1733773299243 456.90416380980326 1100.0736441005447 455.4883135437562Q1103.973910871165 454.0724632777091 1106.1377575041802 452.0154732685464Q1108.3016041371957 449.9584832593836 1109.8777393390217 447.87477909425775L1109.8777393390217 447.87477909425775Q1111.4004462289213 446.00478817683705 1112.388869999558 445.06979271812673Q1113.3505796142315 444.1347972594164 1115.1404280637628 443.7340849199691L1115.1404280637628 443.7340849199691Q1116.6364207976992 443.2799442685955 1119.9756902930933 443.1463734887797Q1123.3149597884874 442.9860885530008 1126.6542292838815 442.9860885530008Q1129.9934987792756 442.9860885530008 1131.30249242147 443.1730876447429L1131.30249242147 443.1730876447429Q1133.2793399627433 443.2799442685955 1134.0273363297115 443.9477981676743L1134.0273363297115 443.9477981676743Q1134.77533269668 444.58893791079 1134.9623317884218 446.7527845438054L1134.9623317884218 446.7527845438054Q1135.2561875040167 449.74477001167844 1135.2829016599796 453.88546418596707Q1135.336329971906 458.0261583602557 1135.149330880164 461.01814382812876L1135.149330880164 461.01814382812876Q1135.0691884122743 461.97985344280227 1134.8287610086063 462.62099318591794Q1134.5883336049378 463.28884708499675 1133.8403372379696 464.5978407271912L1133.8403372379696 464.5978407271912Q1132.905341779259 466.09383346112776 1130.1804978710175 468.9522481491851Q1127.455653962776 471.8373769932055 1122.192965238035 474.88279077300496Q1116.9302765132938 477.92820455280435 1108.6221740087535 480.0920511858197Q1100.314071504213 482.2558978188351 1088.1858446969418 482.2558978188351L1088.1858446969418 482.2558978188351Q1075.2294790548128 482.2558978188351 1063.9561052383624 478.916628323441Q1052.6827314219122 475.5773588280469 1044.1876298256295 467.69668281891694Q1035.692528229347 459.8160068097869 1030.937408467906 446.3787863603212Q1026.209002862428 432.94156591085545 1026.209002862428 412.85252062656474L1026.209002862428 412.85252062656474Q1026.209002862428 390.4927720854061 1033.9561080917422 374.86499084696186Q1041.7032133210564 359.2104954525544 1055.96857260538 351.0626778837929Q1070.2606460456664 342.88814615906824 1089.788694054731 342.88814615906824L1089.788694054731 342.88814615906824Q1103.4930560638281 342.88814615906824 1111.8011585683687 345.69313253519925Q1120.1359752288722 348.5248330672934 1124.4369543389398 352.3182432140611Q1128.7646476049706 356.1116533608287 1130.5544960545017 358.9433538929229L1130.5544960545017 358.9433538929229Q1131.1956357976173 359.9852059754859 1131.489491513212 360.7599164984173Q1131.7566330728437 361.5613411773119 1131.8634896966962 363.27104715895365L1131.8634896966962 363.27104715895365Q1132.1573454122909 365.51503625985845 1131.997060476512 369.8427295258892Q1131.8634896966962 374.1437086359567 1131.30249242147 377.4295498194245L1131.30249242147 377.4295498194245Q1130.928494237986 379.5132539845504 1130.0736412471651 380.15439372766605L1130.0736412471651 380.15439372766605Q1129.699643063681 380.52839191115015 1128.7646476049706 380.82224762674485Q1127.8296521462603 381.11610334233956 1125.9596612288394 381.11610334233956L1125.9596612288394 381.11610334233956Q1122.9409616050032 381.11610334233956 1119.1742656141987 380.8756759386712Q1115.4342837793574 380.6352485350028 1113.5375787059734 380.3413928194081L1113.5375787059734 380.3413928194081Q1111.2935896050687 379.967394635924 1110.2517375225057 379.272826580882Q1109.236599595906 378.57825852584006 1108.194747513343 377.05555163594033L1108.194747513343 377.05555163594033Q1106.5117556876644 374.6245634432935 1102.371061513376 371.4188647277152Q1098.230367339087 368.2398801681 1088.746841972168 368.2398801681L1088.746841972168 368.2398801681Q1075.416478146555 368.2398801681 1066.7878057704565 378.52483021391373Q1058.1324192383952 388.80978025972746 1058.1324192383952 411.81066854400177L1058.1324192383952 411.81066854400177Q1058.1324192383952 434.73141436038674 1067.1885181099037 445.817789085095Q1076.2713311373757 456.90416380980326 1089.3078392473942 456.90416380980326ZM1183.341668237691 416.5925024614061L1183.341668237691 474.9362190849312Q1183.341668237691 477.7412054610623 1182.1662453753124 478.83648585555153Q1180.9908225129336 479.90505209407763 1178.1591219808397 479.90505209407763L1178.1591219808397 479.90505209407763L1158.8180730635172 479.90505209407763Q1156.013086687386 479.90505209407763 1154.8376638250074 478.83648585555153Q1153.6622409626286 477.7412054610623 1153.6622409626286 474.9362190849312L1153.6622409626286 474.9362190849312L1153.6622409626286 347.85697916821465Q1153.6622409626286 345.6129900673098 1154.597236421339 344.38413889300483L1154.597236421339 344.38413889300483Q1158.5242173479223 339.22830679211637 1166.137751797421 333.21762170040705L1166.137751797421 333.21762170040705Q1167.4467454396154 332.25591208573354 1168.4885975221782 332.25591208573354L1168.4885975221782 332.25591208573354Q1169.7174486964832 332.25591208573354 1170.8394432469358 333.21762170040705L1170.8394432469358 333.21762170040705Q1174.8732807973718 336.3164637921327 1177.6515530175398 339.04130770037426Q1180.4298252377075 341.76615160861587 1182.3799586230175 344.38413889300483L1182.3799586230175 344.38413889300483Q1183.341668237691 345.6129900673098 1183.341668237691 347.85697916821465L1183.341668237691 347.85697916821465L1183.341668237691 393.4046150853897L1183.7156664211752 393.4046150853897Q1185.772656430338 390.67977117714815 1189.0584976138057 387.9014989569803Q1192.3443387972734 385.1499408927756 1197.847454925683 383.25323581939176Q1203.3238568981292 381.38324490197107 1211.872386806338 381.38324490197107L1211.872386806338 381.38324490197107Q1220.5277733383996 381.38324490197107 1228.515305971382 384.9629418010335Q1236.4761244484016 388.5159245441328 1241.5518140814006 396.9843119844522Q1246.6275037143996 405.42598526880835 1246.6275037143996 420.0920568925791L1246.6275037143996 420.0920568925791L1246.6275037143996 474.9362190849312Q1246.6275037143996 477.7412054610623 1245.4520808520208 478.83648585555153Q1244.276657989642 479.90505209407763 1241.471671613511 479.90505209407763L1241.471671613511 479.90505209407763L1222.1306226961888 479.90505209407763Q1219.2989221640944 479.90505209407763 1218.1234993017156 478.83648585555153Q1216.948076439337 477.7412054610623 1216.948076439337 474.9362190849312L1216.948076439337 474.9362190849312L1216.948076439337 425.24788899346754Q1216.948076439337 414.829368167838 1212.6203831733064 410.07424840639686Q1208.3194040632388 405.3458428009189 1200.8928687054824 405.3458428009189L1200.8928687054824 405.3458428009189Q1193.5731899715786 405.3458428009189 1189.5393524211427 408.52482736053406Q1185.4788007147433 411.73052607611237 1183.341668237691 416.5925024614061L1183.341668237691 416.5925024614061ZM1296.8768310810894 482.2558978188351L1296.8768310810894 482.2558978188351Q1283.0656124481397 482.2558978188351 1274.944509035341 474.5087925895208Q1266.8234056225429 466.7616873602066 1266.8234056225429 453.1374678189988L1266.8234056225429 453.1374678189988Q1266.8234056225429 446.0849306447265 1269.4146787509687 440.04753139705406Q1271.9792377234312 433.9834179934184 1278.4173493105511 429.3351548558299Q1284.8554608976708 424.6868917182413 1296.449404585679 421.8551911861471Q1308.0433482736871 419.05020481001617 1326.0754035488153 418.5693500026794L1326.0754035488153 418.5693500026794Q1326.0754035488153 410.0208200944706 1321.801138594711 406.2808382596292Q1317.5268736406065 402.51414226882474 1308.9783437323977 402.51414226882474L1308.9783437323977 402.51414226882474Q1301.2846668150096 402.51414226882474 1296.3959762737527 405.15884370917684Q1291.533999888459 407.77683099356574 1290.3051487141538 408.7118264522761L1290.3051487141538 408.7118264522761Q1288.9961550719595 409.8338210027285 1287.0994499985757 409.566679443097L1287.0994499985757 409.566679443097Q1284.5616051820762 409.19268125961287 1281.7031904940188 408.2576858009025Q1278.8447758059615 407.29597618622904 1275.5589346224938 406.09383916788715L1275.5589346224938 406.09383916788715Q1275.078079815157 405.9068400761451 1274.517082539931 405.4794135807347Q1273.9560852647046 405.05198708532424 1273.8759427968153 404.1971340945033L1273.8759427968153 404.1971340945033Q1273.8759427968153 403.7429934431297 1273.9560852647046 403.02171123212463Q1274.0629418885571 402.32714317708263 1274.4369400720414 400.457152259662L1274.4369400720414 400.457152259662Q1274.8109382555253 398.56044718627817 1275.5589346224938 395.8088891220734Q1276.306930989462 393.03061690190555 1276.9747848885409 391.534624167969L1276.9747848885409 391.534624167969Q1277.8029237233986 389.9317748101799 1279.779771264672 388.5159245441328L1279.779771264672 388.5159245441328Q1281.382620622461 387.2069309019383 1289.450295723333 384.2950879019547Q1297.5446849801683 381.38324490197107 1312.8518963470547 381.38324490197107L1312.8518963470547 381.38324490197107Q1355.0068344569095 381.38324490197107 1355.0068344569095 422.4161884613734L1355.0068344569095 422.4161884613734L1355.0068344569095 475.5773588280469Q1355.0068344569095 477.36720727757813 1354.0184106862728 478.6494867638095Q1353.029986915636 479.90505209407763 1350.679141190879 479.90505209407763L1350.679141190879 479.90505209407763L1336.600780998297 479.90505209407763Q1335.1047882643606 479.90505209407763 1333.929365401982 479.4776255986672Q1332.7539425396033 479.0501991032567 1331.7120904570404 477.8480620849149L1331.7120904570404 477.8480620849149L1325.8884044570732 470.31467010330584L1325.2472647139575 470.31467010330584Q1320.9195714479267 476.61921091060987 1313.626606869986 479.4241972867409Q1306.3603564480086 482.2558978188351 1296.8768310810894 482.2558978188351ZM1307.2152094388293 460.45714655290254L1307.2152094388293 460.45714655290254Q1315.843881814928 460.45714655290254 1320.2517175488479 456.0493108189824Q1324.6862674387312 451.64147508506227 1325.8884044570732 446.93978363554737L1325.8884044570732 446.93978363554737L1325.8884044570732 436.5212628099179Q1312.8518963470547 436.5212628099179 1306.3069281360822 438.52482450715434Q1299.7886740810732 440.55510036035395 1297.6248274480577 443.7875132318954Q1295.4609808150424 447.0466402594 1295.4609808150424 450.78662209424135L1295.4609808150424 450.78662209424135Q1295.4609808150424 456.2363099107245 1298.8536786223626 458.34672823181353Q1302.2196622737201 460.45714655290254 1307.2152094388293 460.45714655290254ZM1376.0575893558737 352.18467243424533L1376.0575893558737 352.18467243424533Q1376.0575893558737 350.9558212599403 1376.805585722842 350.02082580123Q1377.5535820898103 349.0858303425196 1378.7824332641153 347.56312345261995L1378.7824332641153 347.56312345261995Q1381.4004205485041 344.5711379847469 1384.873260823714 341.2318684893528Q1388.3461010989236 337.89259899395876 1391.9257979979861 334.79375690223304L1391.9257979979861 334.79375690223304Q1394.169787098891 333.03062260866494 1395.2917816493436 333.03062260866494L1395.2917816493436 333.03062260866494Q1396.440490355759 333.03062260866494 1398.7646219245532 334.79375690223304L1398.7646219245532 334.79375690223304Q1406.3781563740517 341.3654392691686 1411.7477017226454 347.56312345261995L1411.7477017226454 347.56312345261995Q1412.9498387409872 348.978973718667 1413.7512634198818 349.96739748930366Q1414.5526880987763 350.9558212599403 1414.5526880987763 352.18467243424533L1414.5526880987763 352.18467243424533Q1414.5526880987763 353.3868094525872 1413.7512634198818 354.3485190672607Q1412.9498387409872 355.28351452597104 1411.6408450987929 356.8863638837602L1411.6408450987929 356.8863638837602Q1409.1030002822931 359.79820688374383 1405.737016630936 363.11076222317473Q1402.3443188236156 366.4500317185688 1398.7646219245532 369.468731342405L1398.7646219245532 369.468731342405Q1397.4556282823587 370.59072589285745 1396.7076319153905 370.9112957644153Q1395.9596355484223 371.23186563597307 1395.2917816493436 371.23186563597307L1395.2917816493436 371.23186563597307Q1394.6506419062277 371.23186563597307 1393.9293596952227 370.9112957644153Q1393.2347916401804 370.59072589285745 1391.738798906244 369.468731342405L1391.738798906244 369.468731342405Q1387.9721029154398 366.4500317185688 1384.6862617319719 363.11076222317473Q1381.4004205485041 359.79820688374383 1378.7824332641153 356.6726506360549L1378.7824332641153 356.6726506360549Q1377.5535820898103 355.1766579021184 1376.805585722842 354.29509075533434Q1376.0575893558737 353.3868094525872 1376.0575893558737 352.18467243424533ZM1410.0379957410037 388.70292363587487L1410.0379957410037 474.9362190849312Q1410.0379957410037 477.7412054610623 1408.862572878625 478.83648585555153Q1407.6871500162463 479.90505209407763 1404.882163640115 479.90505209407763L1404.882163640115 479.90505209407763L1385.5411147227928 479.90505209407763Q1382.7094141906985 479.90505209407763 1381.5339913283196 478.83648585555153Q1380.358568465941 477.7412054610623 1380.358568465941 474.9362190849312L1380.358568465941 474.9362190849312L1380.358568465941 388.70292363587487Q1380.358568465941 385.89793725974386 1381.5339913283196 384.80265686525456Q1382.7094141906985 383.73409062672846 1385.5411147227928 383.73409062672846L1385.5411147227928 383.73409062672846L1404.882163640115 383.73409062672846Q1407.6871500162463 383.73409062672846 1408.862572878625 384.80265686525456Q1410.0379957410037 385.89793725974386 1410.0379957410037 388.70292363587487L1410.0379957410037 388.70292363587487ZM1528.5687057495115 420.0920568925791L1528.5687057495115 420.0920568925791L1528.5687057495115 474.9362190849312Q1528.5687057495115 477.7412054610623 1527.3932828871327 478.83648585555153Q1526.2178600247541 479.90505209407763 1523.412873648623 479.90505209407763L1523.412873648623 479.90505209407763L1504.0451105753373 479.90505209407763Q1501.2401241992063 479.90505209407763 1500.0647013368275 478.83648585555153Q1498.889278474449 477.7412054610623 1498.889278474449 474.9362190849312L1498.889278474449 474.9362190849312L1498.889278474449 424.95403327787284Q1498.889278474449 414.72251154398543 1494.5615852084181 410.0208200944706Q1490.2606060983508 405.3458428009189 1482.8340707405941 405.3458428009189L1482.8340707405941 405.3458428009189Q1475.407535382838 405.3458428009189 1471.4271261443282 408.52482736053406Q1467.4200027498553 411.73052607611237 1465.25615611684 416.5925024614061L1465.25615611684 416.5925024614061L1465.25615611684 474.9362190849312Q1465.25615611684 477.7412054610623 1464.1074474104244 478.83648585555153Q1462.9320245480458 479.90505209407763 1460.1003240159516 479.90505209407763L1460.1003240159516 479.90505209407763L1440.7592750986291 479.90505209407763Q1437.9275745665348 479.90505209407763 1436.7521517041562 478.83648585555153Q1435.6034429977406 477.7412054610623 1435.6034429977406 474.9362190849312L1435.6034429977406 474.9362190849312L1435.6034429977406 396.23631561748385Q1435.6034429977406 393.9656123606159 1436.5384384564509 392.7367611863109L1436.5384384564509 392.7367611863109Q1438.5152859977243 390.11877390192194 1441.2668440619289 387.3939299936804Q1444.0451162820968 384.66908608543883 1448.078953832533 381.5702439937131L1448.078953832533 381.5702439937131Q1449.307805006838 380.6352485350028 1450.4297995572902 380.6352485350028L1450.4297995572902 380.6352485350028Q1451.471651639853 380.6352485350028 1452.7806452820478 381.5702439937131L1452.7806452820478 381.5702439937131Q1456.7343403645943 384.66908608543883 1459.5393267407253 387.500786617533Q1462.344313116856 390.305772993664 1464.5081597498715 393.32447261750025L1464.5081597498715 393.32447261750025L1464.9890145572085 393.32447261750025Q1466.5918639149975 391.24076845237437 1469.7708484746126 388.4892103881696Q1472.976547190191 385.7109381680018 1478.746804878232 383.5470915349864Q1484.517062566273 381.38324490197107 1493.5464472818185 381.38324490197107L1493.5464472818185 381.38324490197107Q1502.3621187496587 381.38324490197107 1510.3496513826415 384.9629418010335Q1518.337184015624 388.5159245441328 1523.4395878045862 396.9843119844522Q1528.5687057495115 405.42598526880835 1528.5687057495115 420.0920568925791Z " fill="#EC34/" transform="matrix(0.5724309460958118,0,0,0.5724309460958119,0,66.87414766417882)"/></g></svg>